<?xml version="1.0" encoding="UTF-8"?>
<svg xmlns="http://www.w3.org/2000/svg" xmlns:xlink="http://www.w3.org/1999/xlink" width="2836" height="2836" viewBox="0 0 2836 2836">

<path fill-rule="evenodd" fill="rgb(0%, 0%, 0%)" fill-opacity="1" d="M 1135.191406 2063.839844 C 1135.5 2032.65625 1121.230469 2017.933594 1103.800781 2006.761719 C 742.796875 1854.851562 513.984375 1724.679688 417.367188 1616.25 C 286.996094 1469.941406 426.015625 1199.121094 577.855469 1159.691406 L 1147.871094 1798.359375 C 1156.238281 1807.71875 1170.621094 1808.511719 1179.96875 1800.140625 C 1189.328125 1791.769531 1190.128906 1777.390625 1181.761719 1768.03125 L 603.476562 1120.109375 C 602.78125 1119.328125 602.039062 1118.609375 601.265625 1117.949219 C 604.214844 929.058594 834.25 753.890625 1020.039062 790 L 1293.160156 1713.078125 C 1296.710938 1725.148438 1309.359375 1732.058594 1321.429688 1728.511719 C 1333.5 1724.960938 1340.410156 1712.300781 1336.859375 1700.238281 L 1062.398438 772.609375 C 1213.921875 561.511719 1622.46875 562.078125 1774 772.660156 L 1499.550781 1700.238281 C 1496.011719 1712.300781 1502.921875 1724.960938 1514.980469 1728.511719 C 1527.050781 1732.058594 1539.710938 1725.148438 1543.25 1713.078125 L 1816.371094 790 C 2004.21875 753.488281 2237.300781 932.960938 2235.171875 1124.21875 L 1660.558594 1768.03125 C 1652.191406 1777.390625 1652.988281 1791.769531 1662.351562 1800.140625 C 1671.699219 1808.511719 1686.078125 1807.71875 1694.449219 1798.359375 L 2263.320312 1160.96875 C 2413.28125 1204.738281 2548.050781 1471.480469 2419.039062 1616.25 C 2322.429688 1724.679688 2093.621094 1854.851562 1732.609375 2006.761719 C 1715.179688 2017.933594 1700.910156 2032.65625 1701.21875 2063.839844 C 1701.730469 2090.980469 1701.480469 2117.386719 1701.21875 2144.476562 C 1698.910156 2195.648438 1672.511719 2219.101562 1622.738281 2221.085938 C 1486.390625 2220.976562 1350.019531 2220.976562 1213.671875 2221.085938 C 1163.898438 2219.101562 1137.5 2195.648438 1135.191406 2144.476562 C 1134.929688 2117.386719 1134.679688 2090.980469 1135.191406 2063.839844 "/>
</svg>
